<?xml version="1.0" standalone="no"?>
<!DOCTYPE svg PUBLIC "-//W3C//DTD SVG 20010904//EN"
 "http://www.w3.org/TR/2001/REC-SVG-20010904/DTD/svg10.dtd">
<svg version="1.0" xmlns="http://www.w3.org/2000/svg"
 width="512.000000pt" height="512.000000pt" viewBox="0 0 512.000000 512.000000"
 preserveAspectRatio="xMidYMid meet">
<metadata>
Created by potrace 1.14, written by Peter Selinger 2001-2017
</metadata>
<g transform="translate(0.000000,512.000000) scale(0.100000,-0.100000)"
fill="#000000" stroke="none">
<path d="M2479 5026 c-2 -2 -51 -7 -109 -11 -115 -8 -165 -12 -165 -15 0 -2
-30 -8 -70 -14 -16 -3 -46 -8 -65 -12 -19 -3 -39 -7 -45 -8 -5 -1 -15 -5 -21
-9 -7 -4 -28 -8 -48 -9 -20 -2 -36 -6 -36 -9 0 -6 -53 -19 -77 -20 -5 0 -17
-8 -27 -17 -15 -13 -17 -13 -11 -2 8 13 6 13 -8 2 -9 -8 -20 -11 -26 -8 -5 3
-11 1 -13 -5 -2 -6 -15 -12 -30 -12 -14 -1 -24 -5 -22 -8 5 -9 -77 -40 -87
-33 -5 3 -9 1 -9 -3 0 -5 -25 -20 -55 -33 -30 -13 -55 -28 -55 -32 0 -4 -10
-5 -21 -3 -12 3 -19 2 -15 -2 7 -7 -72 -55 -91 -56 -7 0 -13 -4 -13 -9 0 -5
-5 -6 -12 -2 -7 4 -8 3 -4 -5 5 -7 -4 -15 -23 -22 -17 -6 -31 -15 -31 -21 0
-5 -4 -6 -10 -3 -5 3 -10 1 -10 -4 0 -6 -7 -11 -15 -11 -8 0 -15 -4 -15 -10 0
-5 -4 -10 -10 -10 -6 0 -18 -8 -28 -17 -29 -27 -63 -48 -74 -45 -5 1 -7 -2 -3
-8 3 -5 -1 -10 -9 -10 -9 0 -16 -7 -16 -16 0 -14 -2 -15 -17 -3 -13 11 -15 11
-9 1 9 -14 -23 -44 -37 -35 -4 2 -6 0 -5 -5 5 -14 -92 -103 -104 -96 -7 4 -8
2 -4 -4 4 -7 3 -12 -3 -12 -5 0 -13 -9 -16 -20 -4 -11 -11 -18 -16 -15 -5 4
-14 -5 -20 -19 -8 -16 -17 -22 -27 -19 -11 5 -13 3 -7 -6 5 -9 -2 -21 -19 -36
-14 -12 -22 -26 -18 -30 4 -5 -1 -5 -11 -2 -10 4 -16 3 -13 -1 3 -5 -10 -24
-29 -44 -18 -20 -30 -39 -27 -42 3 -3 0 -6 -6 -6 -6 0 -14 -9 -17 -20 -4 -11
-11 -17 -17 -14 -7 5 -9 1 -5 -9 6 -15 -3 -22 -25 -18 -4 0 -4 -7 -1 -16 4
-11 3 -14 -5 -9 -8 5 -10 2 -6 -8 3 -9 1 -16 -5 -16 -6 0 -11 -5 -11 -11 0 -7
-10 -20 -22 -30 -11 -11 -18 -19 -14 -19 4 0 2 -9 -4 -21 -10 -17 -14 -18 -28
-8 -14 11 -15 11 -5 0 9 -10 9 -20 0 -40 -6 -14 -14 -28 -18 -31 -8 -7 -40
-69 -37 -72 2 -2 -8 -18 -22 -37 -13 -19 -18 -31 -10 -26 9 6 11 4 6 -4 -5 -7
-15 -10 -23 -7 -8 3 -11 1 -8 -4 9 -14 -15 -81 -26 -75 -5 4 -6 -1 -3 -9 3 -8
-1 -28 -10 -43 -8 -15 -25 -57 -37 -93 -12 -36 -27 -71 -32 -77 -5 -7 -6 -13
-2 -13 4 0 3 -6 -2 -12 -6 -7 -9 -21 -8 -30 2 -10 -1 -18 -7 -18 -6 0 -8 -7
-4 -15 3 -10 -1 -15 -12 -15 -10 0 -13 -3 -7 -8 15 -10 17 -32 3 -32 -6 0 -8
-3 -5 -7 4 -3 1 -13 -6 -21 -10 -13 -9 -14 3 -7 13 8 13 6 1 -8 -7 -9 -11 -24
-7 -32 3 -10 -1 -15 -12 -15 -10 0 -13 -3 -7 -8 6 -4 10 -13 9 -19 -1 -7 -2
-18 -3 -24 0 -5 -7 -7 -13 -3 -10 5 -10 4 -2 -5 8 -8 9 -25 3 -49 -4 -20 -6
-39 -3 -43 2 -4 1 -10 -4 -13 -4 -2 -9 -35 -10 -72 -2 -47 -8 -74 -19 -87 -12
-13 -13 -17 -4 -15 7 2 15 -5 16 -15 2 -9 -1 -14 -6 -11 -6 3 -7 -5 -3 -22 5
-21 4 -25 -7 -20 -8 4 -5 0 5 -8 11 -9 14 -16 7 -16 -7 0 -9 -4 -6 -10 3 -5 0
-10 -7 -10 -8 0 -6 -5 5 -11 12 -7 15 -15 9 -26 -5 -9 -6 -31 -2 -49 4 -19 5
-34 1 -34 -3 0 -6 -16 -6 -35 0 -19 4 -35 9 -35 5 0 2 -8 -5 -17 -8 -9 -9 -14
-3 -10 8 4 12 -1 11 -16 -1 -12 2 -35 6 -50 6 -22 5 -27 -5 -21 -7 5 -5 -4 5
-19 11 -17 13 -27 6 -27 -8 0 -7 -6 2 -17 12 -15 12 -16 -3 -10 -10 3 -20 1
-24 -5 -4 -7 -3 -8 4 -4 7 4 12 2 12 -4 0 -6 4 -8 10 -5 5 3 10 -1 10 -10 0
-9 -4 -14 -9 -10 -5 3 -13 0 -17 -6 -4 -7 -3 -9 2 -6 6 3 16 1 24 -4 13 -8 12
-12 -5 -26 -15 -12 -16 -14 -3 -10 9 3 19 0 22 -9 3 -8 1 -14 -5 -14 -5 0 -1
-12 8 -27 17 -26 17 -27 0 -20 -9 3 -17 2 -17 -3 0 -6 6 -10 14 -10 20 0 25
-33 6 -48 -13 -10 -12 -11 5 -5 18 6 19 5 5 -12 -14 -17 -13 -18 3 -12 20 7
23 -3 5 -21 -9 -9 -7 -13 6 -18 15 -6 15 -8 1 -24 -13 -14 -13 -17 0 -17 8 0
12 4 9 9 -3 4 0 8 6 8 7 0 10 -6 7 -14 -3 -7 0 -19 6 -26 9 -10 9 -11 0 -6 -7
4 -13 3 -13 -2 0 -6 7 -13 16 -16 9 -4 14 -9 11 -13 -4 -3 -2 -12 4 -20 12
-14 0 -18 -17 -5 -5 4 2 -4 16 -17 14 -13 20 -21 14 -18 -6 4 -11 0 -11 -7 0
-9 7 -12 16 -8 14 5 14 3 3 -10 -10 -13 -10 -18 -1 -24 8 -5 9 -3 4 6 -5 8 -4
11 3 6 6 -4 9 -13 6 -21 -4 -8 -11 -12 -17 -8 -6 3 -7 1 -3 -5 4 -6 13 -9 21
-5 8 3 15 0 15 -6 0 -6 -6 -11 -12 -11 -7 -1 -2 -7 12 -15 14 -8 21 -14 16
-15 -6 0 -5 -5 2 -12 7 -7 12 -18 12 -26 0 -7 7 -20 15 -28 18 -19 20 -44 3
-45 -7 0 -2 -5 11 -10 23 -9 23 -10 6 -37 -17 -26 -17 -26 0 -10 17 16 19 15
37 -18 10 -19 16 -39 13 -44 -4 -6 1 -10 11 -10 14 0 14 -3 4 -15 -11 -13 -10
-14 3 -10 8 4 18 1 23 -6 4 -7 3 -10 -2 -6 -5 3 -10 -3 -10 -13 0 -14 3 -16
13 -8 11 8 12 7 7 -7 -5 -13 -4 -16 4 -11 19 11 14 -15 -5 -30 -15 -12 -16
-13 -2 -8 10 3 20 0 24 -5 3 -6 10 -9 15 -6 5 3 11 1 15 -5 3 -5 -2 -10 -12
-11 -13 0 -12 -3 7 -10 28 -12 42 -29 35 -46 -2 -7 1 -15 7 -19 7 -4 8 -3 4 4
-4 7 -2 12 4 12 8 0 10 -10 6 -27 -4 -17 -3 -23 2 -15 7 10 12 8 26 -7 13 -14
14 -21 5 -27 -7 -4 -10 -3 -5 4 3 6 2 13 -3 17 -6 3 -8 -6 -5 -22 6 -32 14
-44 14 -20 0 9 7 17 16 17 14 0 14 -3 3 -16 -10 -13 -10 -17 1 -24 7 -4 20 -5
29 -2 14 5 14 3 3 -11 -12 -14 -11 -16 7 -12 12 2 19 0 16 -6 -4 -5 -1 -9 5
-9 6 0 14 -8 17 -17 4 -10 16 -26 28 -35 17 -15 18 -19 5 -28 -12 -9 -10 -10
8 -5 16 5 22 2 22 -10 0 -12 5 -15 17 -11 10 4 15 4 11 1 -3 -4 11 -23 33 -42
31 -28 37 -38 28 -50 -7 -7 -9 -16 -5 -20 3 -3 6 -1 6 5 0 7 7 12 15 12 8 0
15 -5 15 -11 0 -5 -5 -7 -12 -3 -7 4 -8 3 -4 -4 4 -6 13 -9 21 -5 8 3 15 0 15
-5 0 -6 6 -12 12 -15 7 -2 3 -2 -9 -1 -12 2 -24 1 -26 -3 -3 -5 11 -9 31 -11
35 -2 56 -18 46 -34 -3 -4 -1 -8 5 -8 5 0 12 6 14 13 3 6 6 1 6 -11 1 -14 6
-22 14 -19 16 6 67 -31 67 -49 0 -8 5 -14 10 -14 18 0 25 -2 43 -12 17 -9 18
-11 2 -28 -11 -12 -13 -20 -5 -25 6 -3 9 -1 8 7 -4 18 38 22 45 4 4 -9 2 -16
-2 -16 -5 0 -11 6 -14 13 -3 6 -4 2 -4 -10 1 -21 3 -21 23 -8 19 12 24 12 34
0 7 -8 16 -12 21 -9 5 3 6 -3 2 -12 -5 -13 -3 -15 7 -9 10 6 12 4 7 -8 -4 -11
-2 -14 8 -10 8 3 12 10 9 17 -4 6 1 4 11 -5 13 -13 15 -21 6 -37 -8 -15 -8
-23 1 -28 7 -4 8 -3 4 4 -4 7 -2 12 4 12 6 0 9 4 5 9 -3 5 -1 12 5 16 5 3 10
1 10 -6 0 -7 3 -10 6 -6 4 3 13 -1 21 -9 12 -12 13 -18 3 -29 -20 -24 0 -17
22 8 11 12 17 17 14 11 -7 -14 21 -27 36 -17 7 3 8 1 4 -5 -4 -7 -1 -12 8 -12
9 0 16 -4 16 -8 0 -5 7 -9 15 -10 8 -1 22 -3 30 -4 8 -1 12 -5 9 -10 -3 -5
-11 -5 -17 -1 -7 4 -5 -2 3 -13 22 -29 24 -30 17 -11 -4 9 -2 17 3 17 9 0 14
-15 11 -33 -1 -5 3 -5 9 -2 6 4 9 13 6 21 -5 12 -2 12 17 2 12 -7 24 -13 27
-14 3 -1 15 -5 27 -9 13 -4 23 -11 23 -16 0 -4 9 -6 19 -4 11 2 25 -3 31 -11
7 -7 16 -12 20 -9 5 3 11 1 15 -5 4 -6 11 -8 16 -5 5 4 9 2 9 -3 0 -5 6 -9 13
-10 22 -2 42 -7 55 -15 7 -5 26 -9 42 -9 17 -1 30 -5 30 -10 0 -4 3 -7 8 -7
22 4 33 -3 30 -18 -2 -11 4 -18 17 -20 19 -3 19 -3 1 5 -16 7 -17 10 -5 17 24
16 38 14 31 -3 -5 -15 -4 -15 11 -3 15 12 17 12 11 -4 -6 -14 -4 -16 7 -9 21
13 49 15 49 3 0 -5 -4 -8 -9 -5 -4 3 -17 -2 -27 -10 -10 -9 -13 -12 -6 -9 8 4
20 -1 28 -11 14 -18 14 -18 7 0 -5 14 -3 17 7 11 9 -5 11 -4 6 3 -5 8 2 12 18
12 35 0 41 -3 40 -17 -1 -7 2 -13 7 -13 5 0 9 8 9 18 1 16 1 16 11 0 9 -16 13
-17 38 -3 25 13 31 13 41 0 10 -12 8 -14 -7 -10 -11 2 -26 -1 -34 -7 -11 -8
-10 -9 5 -4 14 5 17 2 12 -11 -5 -15 -3 -14 9 2 9 11 18 19 20 18 11 -6 26 -2
21 5 -3 5 1 9 9 9 8 0 12 -3 10 -6 -2 -4 3 -15 11 -26 8 -10 14 -13 14 -7 0
18 18 14 24 -5 4 -14 4 -13 3 2 -2 12 -10 19 -20 19 -9 -1 -17 2 -17 7 0 4 13
7 29 6 16 -1 27 -5 24 -9 -7 -13 12 -9 26 4 12 11 13 9 7 -7 -6 -19 -5 -19 8
-2 10 14 15 15 19 5 4 -10 6 -10 6 1 1 11 5 10 17 -5 8 -10 12 -13 8 -5 -4 9
-3 12 4 7 6 -3 14 -2 17 4 5 8 11 7 21 -1 7 -6 21 -9 29 -5 9 3 15 0 15 -8 0
-20 27 -27 40 -11 10 12 8 13 -9 10 -12 -2 -21 0 -21 6 0 13 34 11 49 -3 10
-9 12 -9 7 -1 -3 6 -1 15 5 19 8 4 9 3 5 -4 -8 -13 26 -17 37 -5 4 4 27 7 52
8 41 1 45 -1 40 -20 -3 -11 -2 -14 1 -7 3 6 10 12 15 12 6 0 7 -5 3 -12 -5 -7
-3 -8 5 -3 9 5 10 10 2 18 -15 15 -14 24 4 24 8 0 12 -3 10 -7 -2 -3 5 -14 16
-23 10 -9 19 -13 19 -7 0 5 -4 12 -10 15 -5 3 -10 11 -10 17 0 6 3 8 7 5 3 -4
12 -2 20 4 10 9 13 8 13 0 0 -7 5 -9 13 -4 6 4 21 8 32 8 11 0 26 5 34 9 10 6
12 5 7 -2 -4 -7 -3 -12 3 -12 6 0 8 -8 5 -17 -5 -14 -4 -15 4 -4 6 8 8 21 4
29 -3 10 -1 13 7 8 6 -4 17 -4 24 1 7 5 28 10 47 12 19 1 37 6 41 12 4 7 9 4
12 -6 4 -9 3 -13 -3 -10 -6 3 -10 1 -10 -4 0 -13 13 -14 24 -4 4 4 15 8 23 8
9 0 18 7 20 15 3 10 2 11 -4 4 -9 -13 -43 -15 -43 -2 0 4 9 9 20 9 33 2 38 4
46 11 14 15 25 8 19 -12 -4 -12 -2 -20 5 -20 6 0 9 4 5 9 -3 5 -1 12 5 16 6 4
8 10 5 15 -3 5 6 7 21 4 19 -3 24 -1 18 8 -4 7 -4 10 1 6 4 -4 15 -2 24 4 9 8
8 3 -3 -10 -19 -22 -19 -23 -1 -40 12 -10 15 -11 8 -2 -9 12 -7 21 9 40 11 14
19 18 18 10 -4 -29 0 -41 12 -34 7 5 8 3 3 -6 -4 -7 -2 -16 6 -21 11 -7 11 -9
1 -9 -7 0 -10 -5 -6 -12 4 -7 3 -8 -4 -4 -17 10 -15 -3 3 -21 16 -15 12 -33
-7 -33 -5 0 -8 7 -5 15 4 8 2 17 -4 21 -6 3 -8 13 -5 21 4 9 2 11 -6 7 -6 -4
-9 -3 -6 2 4 5 -5 10 -18 10 -13 1 -21 -2 -18 -7 3 -5 12 -9 20 -9 20 0 17
-20 -3 -21 -15 0 -14 -2 3 -9 12 -4 24 -15 27 -24 9 -22 -10 -20 -22 2 -9 15
-10 15 -8 -4 1 -23 21 -25 61 -8 16 6 18 4 13 -10 -4 -10 -7 -21 -7 -24 0 -4
-4 -1 -9 7 -7 10 -12 11 -27 1 -14 -9 -15 -10 -2 -6 9 2 24 -4 34 -15 9 -10
12 -19 6 -19 -6 0 -14 4 -17 10 -3 5 -11 10 -18 10 -6 0 -2 -7 11 -15 17 -13
26 -13 43 -5 19 11 20 10 14 -12 -6 -18 -5 -21 5 -11 18 17 5 44 -17 37 -15
-5 -16 -4 -3 5 11 8 12 11 2 11 -7 0 -10 5 -7 11 5 6 12 3 21 -9 8 -11 20 -19
26 -18 29 6 47 19 41 29 -3 6 -1 7 5 3 8 -5 9 -13 2 -25 -5 -10 -6 -21 -3 -25
3 -3 1 -6 -6 -6 -8 0 -11 7 -6 18 4 12 3 14 -5 6 -14 -14 -4 -41 15 -41 8 0
12 4 10 8 -3 3 2 12 9 18 11 10 17 8 25 -6 6 -10 10 -13 11 -8 0 20 -18 37
-31 31 -8 -4 -5 0 6 8 11 9 29 24 39 32 18 15 19 15 13 0 -4 -10 -3 -14 2 -11
5 3 12 1 16 -5 3 -5 12 -10 18 -10 7 0 4 5 -5 11 -10 5 -18 15 -18 21 0 6 7 5
18 -3 14 -11 13 -10 -2 9 -19 22 -19 22 0 23 10 1 22 1 27 0 4 0 7 4 7 10 0 6
-9 8 -20 4 -15 -5 -18 -3 -14 9 3 9 9 14 14 11 4 -2 6 7 4 21 -2 22 0 24 14
12 15 -12 15 -10 -1 14 -16 26 -16 28 6 44 15 11 16 15 5 11 -20 -7 -25 9 -5
16 9 4 9 6 -1 6 -7 1 -10 6 -7 11 3 6 1 10 -4 10 -6 0 -11 5 -11 11 0 6 7 9
15 6 8 -4 17 -1 21 5 5 7 2 8 -6 3 -9 -5 -11 -1 -6 16 3 13 3 18 0 12 -6 -14
-24 -18 -24 -5 0 15 56 38 92 37 21 -1 34 3 31 9 -4 5 1 7 10 3 9 -3 19 -3 21
2 3 4 -8 7 -24 7 -16 0 -27 -2 -25 -6 2 -3 -6 -7 -17 -7 -20 -2 -20 -1 -2 12
10 7 22 11 26 9 5 -3 8 -1 8 5 0 6 7 7 17 4 12 -5 14 -3 8 8 -8 12 -6 12 8 0
13 -10 20 -11 30 -2 8 6 16 8 20 5 3 -3 3 3 0 15 -7 27 22 39 51 21 l21 -13
-20 23 c-14 16 -15 21 -5 18 8 -2 27 8 42 24 33 34 43 36 26 5 -15 -28 -19
-49 -7 -41 5 3 7 9 4 14 -3 4 2 13 10 20 8 7 15 19 15 26 0 8 5 14 11 14 5 0
7 -6 3 -12 -4 -8 -3 -10 2 -5 5 5 10 13 10 18 1 5 2 13 3 18 3 22 36 21 54 -1
10 -13 16 -17 12 -10 -4 7 -1 21 7 30 12 15 11 16 -4 3 -12 -9 -18 -10 -18 -2
0 6 0 13 0 16 0 3 2 5 5 5 2 0 15 10 28 23 50 47 92 81 99 79 4 -1 12 8 18 19
7 11 18 18 25 15 8 -3 17 0 21 6 4 6 3 8 -4 4 -12 -7 -10 20 3 31 4 4 5 3 2
-3 -4 -7 2 -14 14 -17 16 -4 18 -3 8 9 -9 11 -9 14 0 14 7 0 9 5 5 12 -4 7 -3
8 4 4 11 -6 16 5 13 26 0 4 5 5 13 2 7 -3 19 3 27 13 13 17 13 17 -6 3 -19
-14 -19 -14 -6 3 8 10 20 16 27 13 8 -3 11 2 9 13 -3 15 1 18 18 14 18 -4 19
-3 7 6 -13 9 -13 11 2 11 9 0 20 5 24 12 5 8 2 9 -9 5 -14 -5 -13 -1 4 23 12
16 26 27 31 24 4 -3 12 6 18 20 11 29 22 36 14 9 -5 -17 -5 -17 6 0 6 9 9 21
6 26 -9 13 19 32 38 25 9 -3 16 -1 16 6 0 6 -4 9 -9 6 -5 -3 -11 0 -14 8 -6
15 9 16 31 3 6 -5 12 -4 12 1 0 6 -8 13 -17 17 -17 6 -17 7 0 20 11 8 25 11
32 9 7 -3 16 -1 19 4 3 5 -6 8 -21 6 -31 -3 -18 14 14 19 13 2 26 7 30 12 5 4
3 5 -3 2 -20 -12 -22 28 -3 52 17 21 24 20 20 -2 -1 -5 3 -6 9 -2 7 4 7 13 -1
27 -6 12 -7 18 -1 14 11 -7 25 21 16 35 -3 5 2 12 10 15 9 3 13 11 9 17 -3 6
-1 7 5 3 7 -4 12 -3 12 3 0 6 8 8 18 5 16 -5 16 -5 0 6 -21 13 -24 32 -4 24
16 -6 31 12 17 21 -12 7 -3 35 11 35 6 0 8 -6 5 -13 -3 -8 0 -14 7 -14 7 0 12
10 11 21 -1 12 0 26 4 31 3 6 7 19 8 30 3 16 1 17 -7 5 -19 -29 -10 -2 13 39
13 23 28 38 32 34 5 -5 3 1 -5 11 -14 18 -13 19 10 13 22 -5 23 -5 8 7 -10 7
-15 16 -11 19 3 4 12 2 19 -4 8 -7 14 -6 20 2 4 7 3 9 -3 6 -6 -4 -17 1 -24
10 -12 15 -12 16 6 9 16 -6 17 -5 8 5 -9 9 -9 17 0 33 6 12 12 30 12 41 0 13
7 19 19 18 13 -1 15 2 7 10 -15 15 -14 30 2 21 9 -6 9 -4 -1 8 -9 11 -10 18
-2 23 6 3 7 11 4 17 -5 8 -1 9 10 5 14 -5 15 -3 6 13 -7 13 -7 21 0 25 6 4 8
11 5 16 -4 5 -2 9 3 9 6 0 8 10 4 22 -4 17 -2 20 11 15 11 -4 14 -2 10 8 -3 8
-10 12 -16 8 -6 -4 -7 -1 -1 8 4 8 10 21 12 29 4 19 12 71 14 88 1 7 8 10 15
8 9 -4 11 -2 6 7 -14 21 -9 91 7 105 8 8 9 11 3 7 -7 -3 -13 -1 -13 4 0 6 5
11 10 11 6 0 10 5 10 11 0 5 -4 7 -10 4 -17 -10 -11 7 8 22 9 8 11 12 5 8 -9
-4 -13 2 -13 19 0 13 6 27 12 29 10 4 9 6 -1 6 -11 1 -11 4 0 18 10 11 10 14
2 9 -18 -10 -16 -1 3 18 14 14 14 16 0 16 -9 0 -13 6 -10 14 3 8 13 12 22 10
14 -5 14 -4 -1 6 -9 6 -15 15 -12 21 4 5 1 9 -6 9 -7 0 -8 4 -2 13 5 6 8 27 6
45 -2 24 1 31 10 27 6 -4 3 1 -7 9 -11 9 -15 16 -9 16 6 0 9 12 7 27 -1 15 3
31 9 35 8 5 5 8 -8 8 -17 0 -17 2 -5 10 10 6 11 10 3 10 -7 0 -13 7 -13 16 0
9 5 12 12 8 7 -5 8 -3 2 7 -4 8 -9 20 -11 28 -1 8 -4 26 -8 39 -4 16 -2 21 6
17 8 -6 8 -2 0 14 -10 18 -9 20 6 15 10 -3 7 2 -7 10 -14 8 -19 15 -11 16 11
0 11 3 1 15 -10 12 -10 15 1 15 12 0 12 2 0 9 -8 5 -12 19 -9 35 3 14 1 23 -3
20 -5 -3 -9 2 -9 11 0 9 4 14 9 10 5 -3 13 0 17 6 4 7 3 9 -2 6 -6 -3 -16 -2
-24 4 -13 7 -13 9 0 9 12 0 13 2 1 9 -7 5 -14 24 -14 42 -1 19 -5 37 -10 40
-4 3 -9 20 -9 37 -1 18 -5 32 -10 32 -5 0 -6 5 -3 10 4 6 1 17 -5 25 -7 8 -9
15 -5 15 4 0 1 8 -6 17 -12 15 -12 16 1 8 12 -7 12 -5 -1 11 -9 10 -19 30 -22
44 -8 40 -51 154 -60 161 -5 3 -8 8 -7 10 2 2 -8 29 -21 59 -13 30 -23 57 -23
60 0 3 -6 11 -13 18 -7 8 -11 18 -8 23 4 5 2 9 -3 9 -5 0 -20 23 -33 50 -13
28 -27 50 -31 50 -5 0 -8 6 -8 13 0 7 -9 23 -20 35 -12 12 -17 22 -13 22 4 0
3 4 -3 8 -6 4 -18 21 -27 37 -8 17 -25 40 -36 52 -12 12 -21 25 -21 28 0 7
-62 88 -94 122 -39 41 -51 58 -49 65 2 4 -5 9 -15 12 -9 3 -26 19 -37 36 -11
16 -26 30 -32 30 -7 0 -13 3 -13 8 0 8 -41 51 -85 88 -16 14 -47 39 -67 56
-20 17 -34 36 -31 41 3 6 1 7 -5 3 -6 -3 -16 0 -24 7 -7 7 -21 16 -30 20 -10
3 -18 11 -18 17 0 5 -5 10 -10 10 -16 0 -95 61 -93 71 2 4 -4 6 -12 3 -8 -4
-15 -1 -15 5 0 6 -8 11 -19 11 -21 0 -44 23 -34 34 4 4 0 4 -9 1 -10 -4 -25 2
-37 14 -12 12 -21 19 -21 16 0 -3 -14 2 -30 10 -17 9 -28 20 -25 24 3 5 -4 7
-15 4 -11 -3 -20 0 -20 6 0 6 -6 10 -12 8 -7 -1 -12 4 -10 11 1 8 -2 11 -8 7
-5 -3 -47 10 -92 30 -45 19 -88 35 -95 35 -8 0 -11 5 -7 12 4 6 3 8 -3 5 -12
-7 -70 10 -91 26 -8 6 -28 12 -45 14 -52 5 -57 6 -57 12 0 6 -26 11 -67 14 -7
0 -13 3 -13 7 0 4 -6 7 -12 8 -39 5 -74 10 -78 12 -3 1 -13 2 -22 1 -10 -1
-18 1 -18 6 0 4 -17 9 -38 10 -60 4 -66 5 -79 16 -9 6 -13 6 -13 -2 0 -7 -8
-8 -22 -2 -13 4 -93 9 -178 10 -85 2 -158 4 -161 7 -3 2 -8 2 -10 0z m2202
-3359 c-6 -8 -7 -18 -3 -22 4 -5 2 -5 -5 -1 -14 8 -6 36 9 36 7 0 6 -5 -1 -13z
m-4091 -247 c0 -5 -2 -10 -4 -10 -3 0 -8 5 -11 10 -3 6 -1 10 4 10 6 0 11 -4
11 -10z m140 -200 c0 -5 -2 -10 -4 -10 -3 0 -8 5 -11 10 -3 6 -1 10 4 10 6 0
11 -4 11 -10z m3025 -569 c-3 -6 -11 -8 -17 -5 -6 4 -5 9 3 15 16 10 23 4 14
-10z m-1525 -285 c0 -3 -4 -8 -10 -11 -5 -3 -10 -1 -10 4 0 6 5 11 10 11 6 0
10 -2 10 -4z m1195 -86 c-3 -5 -14 -10 -23 -9 -14 0 -13 2 3 9 27 11 27 11 20
0z"/>
<path d="M4226 4358 c3 -5 10 -6 15 -3 13 9 11 12 -6 12 -8 0 -12 -4 -9 -9z"/>
<path d="M449 3763 c-13 -16 -12 -17 4 -4 16 13 21 21 13 21 -2 0 -10 -8 -17
-17z"/>
<path d="M4795 3421 c-3 -5 -2 -12 3 -15 5 -3 9 1 9 9 0 17 -3 19 -12 6z"/>
<path d="M196 2453 c-6 -14 -5 -15 5 -6 7 7 10 15 7 18 -3 3 -9 -2 -12 -12z"/>
<path d="M210 2379 c0 -5 5 -7 10 -4 6 3 10 8 10 11 0 2 -4 4 -10 4 -5 0 -10
-5 -10 -11z"/>
<path d="M4886 2338 c3 -5 10 -6 15 -3 13 9 11 12 -6 12 -8 0 -12 -4 -9 -9z"/>
<path d="M4870 2239 c0 -5 5 -7 10 -4 6 3 10 8 10 11 0 2 -4 4 -10 4 -5 0 -10
-5 -10 -11z"/>
<path d="M253 2145 c0 -8 4 -12 9 -9 5 3 6 10 3 15 -9 13 -12 11 -12 -6z"/>
<path d="M4835 2059 c-4 -6 -5 -12 -2 -15 2 -3 7 2 10 11 7 17 1 20 -8 4z"/>
<path d="M4806 2002 c-3 -5 1 -9 9 -9 8 0 12 4 9 9 -3 4 -7 8 -9 8 -2 0 -6 -4
-9 -8z"/>
<path d="M4786 1927 c3 -10 9 -15 12 -12 3 3 0 11 -7 18 -10 9 -11 8 -5 -6z"/>
<path d="M389 1741 c8 -5 10 -14 6 -22 -6 -11 -5 -11 5 -2 14 12 6 33 -13 33
-8 0 -7 -3 2 -9z"/>
<path d="M4719 1748 c-5 -18 -6 -38 -1 -34 7 8 12 36 6 36 -2 0 -4 -1 -5 -2z"/>
<path d="M405 1700 c-4 -6 -3 -10 2 -9 20 3 25 -2 13 -16 -11 -13 -10 -14 4
-9 20 8 20 18 2 33 -10 8 -16 9 -21 1z"/>
<path d="M475 1569 c-4 -6 -5 -12 -2 -15 2 -3 7 2 10 11 7 17 1 20 -8 4z"/>
<path d="M4535 1421 c-9 -15 15 -25 28 -12 9 9 7 10 -7 5 -13 -5 -17 -4 -12 4
4 7 5 12 2 12 -3 0 -7 -4 -11 -9z"/>
<path d="M595 1350 c-4 -6 1 -7 11 -3 13 5 15 3 9 -7 -5 -9 -4 -11 4 -6 6 4 9
12 6 17 -8 12 -22 12 -30 -1z"/>
<path d="M613 1305 c0 -8 4 -12 9 -9 5 3 6 10 3 15 -9 13 -12 11 -12 -6z"/>
<path d="M4426 1262 c-3 -5 1 -9 9 -9 8 0 12 4 9 9 -3 4 -7 8 -9 8 -2 0 -6 -4
-9 -8z"/>
<path d="M4364 1182 c3 -5 1 -12 -6 -14 -8 -3 -9 -6 -1 -11 6 -4 13 0 17 8 3
8 0 17 -6 21 -6 4 -8 3 -4 -4z"/>
<path d="M730 1158 c0 -6 3 -8 7 -5 3 4 12 2 19 -4 8 -7 14 -6 20 2 4 7 3 9
-4 5 -6 -3 -13 -2 -17 4 -8 14 -25 13 -25 -2z"/>
<path d="M4349 1123 c-13 -16 -12 -17 4 -4 16 13 21 21 13 21 -2 0 -10 -8 -17
-17z"/>
<path d="M815 1060 c-3 -6 1 -7 9 -4 18 7 21 14 7 14 -6 0 -13 -4 -16 -10z"/>
<path d="M833 1033 c0 -9 4 -10 14 -2 7 6 13 12 13 14 0 1 -6 2 -13 2 -8 0
-14 -6 -14 -14z"/>
<path d="M4276 1038 c3 -5 10 -6 15 -3 13 9 11 12 -6 12 -8 0 -12 -4 -9 -9z"/>
<path d="M886 1025 c4 -8 11 -15 18 -15 6 0 4 -5 -4 -11 -13 -9 -13 -10 1 -6
9 3 23 0 30 -6 8 -7 1 3 -15 21 -33 36 -38 39 -30 17z"/>
<path d="M4195 960 c-3 -5 -1 -10 4 -10 6 0 11 5 11 10 0 6 -2 10 -4 10 -3 0
-8 -4 -11 -10z"/>
<path d="M4146 934 c-5 -14 -4 -15 9 -4 17 14 19 20 6 20 -5 0 -12 -7 -15 -16z"/>
<path d="M935 931 c-3 -5 -2 -12 3 -15 5 -3 9 1 9 9 0 17 -3 19 -12 6z"/>
<path d="M4106 913 c-6 -14 -5 -15 5 -6 7 7 10 15 7 18 -3 3 -9 -2 -12 -12z"/>
<path d="M4130 899 c0 -5 5 -7 10 -4 6 3 10 8 10 11 0 2 -4 4 -10 4 -5 0 -10
-5 -10 -11z"/>
<path d="M4061 876 c-8 -10 -9 -16 -1 -21 5 -3 10 -5 11 -3 4 18 7 38 4 38 -1
0 -8 -6 -14 -14z"/>
<path d="M4090 882 c0 -5 7 -9 15 -9 8 0 12 4 9 9 -3 4 -9 8 -15 8 -5 0 -9 -4
-9 -8z"/>
<path d="M4024 849 c-4 -7 -2 -15 4 -17 7 -2 9 -9 6 -14 -4 -6 -2 -8 4 -5 10
7 11 32 0 42 -3 4 -9 1 -14 -6z"/>
<path d="M1050 840 c0 -5 5 -10 11 -10 5 0 7 5 4 10 -3 6 -8 10 -11 10 -2 0
-4 -4 -4 -10z"/>
<path d="M1090 840 c0 -5 5 -10 11 -10 5 0 7 5 4 10 -3 6 -8 10 -11 10 -2 0
-4 -4 -4 -10z"/>
<path d="M1113 822 c-9 -6 -7 -11 6 -19 15 -10 19 -9 17 2 -3 20 -10 25 -23
17z"/>
<path d="M1070 806 c0 -2 7 -7 16 -10 8 -3 12 -2 9 4 -6 10 -25 14 -25 6z"/>
<path d="M3957 793 c-11 -11 -8 -20 7 -20 8 0 12 6 9 14 -6 15 -7 15 -16 6z"/>
<path d="M1183 765 c0 -7 6 -11 14 -8 7 3 13 6 13 8 0 2 -6 5 -13 8 -8 3 -14
-1 -14 -8z"/>
<path d="M3909 723 c-13 -16 -12 -17 4 -4 16 13 21 21 13 21 -2 0 -10 -8 -17
-17z"/>
<path d="M1279 708 c7 -9 9 -23 5 -30 -6 -10 -4 -11 7 0 11 10 10 15 -6 30
-17 15 -18 15 -6 0z"/>
<path d="M1255 689 c-4 -6 -5 -12 -2 -15 2 -3 7 2 10 11 7 17 1 20 -8 4z"/>
<path d="M3790 670 c8 -5 20 -10 25 -10 6 0 3 5 -5 10 -8 5 -19 10 -25 10 -5
0 -3 -5 5 -10z"/>
<path d="M1390 620 c0 -5 5 -10 10 -10 6 0 10 5 10 10 0 6 -4 10 -10 10 -5 0
-10 -4 -10 -10z"/>
<path d="M1444 602 c3 -5 19 -15 36 -22 16 -7 28 -15 26 -19 -3 -4 4 -8 15 -8
10 -1 19 2 19 8 0 5 -3 8 -7 7 -5 -1 -28 8 -52 21 -23 12 -40 18 -37 13z"/>
<path d="M3625 580 c6 -10 4 -12 -8 -7 -11 4 -14 2 -10 -9 3 -7 9 -14 13 -14
13 0 20 29 8 36 -7 5 -8 2 -3 -6z"/>
<path d="M1456 567 c3 -10 9 -15 12 -12 3 3 0 11 -7 18 -10 9 -11 8 -5 -6z"/>
<path d="M1537 533 c-10 -9 -9 -23 1 -23 5 0 9 7 9 15 0 17 -1 18 -10 8z"/>
<path d="M1616 515 c-3 -8 -1 -15 4 -15 6 0 10 7 10 15 0 8 -2 15 -4 15 -2 0
-6 -7 -10 -15z"/>
<path d="M1646 512 c-3 -5 1 -18 9 -28 13 -17 14 -17 9 -1 -5 13 -2 16 10 11
9 -3 14 -9 12 -13 -3 -4 4 -8 15 -8 10 -1 19 3 19 9 0 6 -3 8 -6 5 -4 -4 -19
3 -35 13 -15 11 -30 16 -33 12z"/>
<path d="M1733 475 c0 -8 4 -12 8 -9 4 2 10 0 14 -6 8 -14 25 -13 25 2 0 6 -3
8 -7 5 -3 -4 -14 0 -23 8 -14 13 -17 13 -17 0z"/>
<path d="M1735 440 c3 -5 8 -10 11 -10 2 0 4 5 4 10 0 6 -5 10 -11 10 -5 0 -7
-4 -4 -10z"/>
<path d="M1790 439 c0 -4 14 -7 30 -7 35 1 33 8 -4 12 -14 2 -26 0 -26 -5z"/>
<path d="M3226 414 c-8 -22 1 -31 16 -16 9 9 9 15 1 23 -7 7 -12 5 -17 -7z"/>
<path d="M3286 422 c-3 -5 4 -18 16 -28 21 -19 21 -19 8 6 -17 33 -17 33 -24
22z"/>
<path d="M1899 407 c16 -16 53 -19 49 -5 -3 7 -17 13 -32 14 -18 1 -24 -2 -17
-9z"/>
<path d="M3175 409 c-4 -6 -5 -12 -2 -15 2 -3 7 2 10 11 7 17 1 20 -8 4z"/>
<path d="M1870 400 c0 -5 5 -10 11 -10 5 0 7 5 4 10 -3 6 -8 10 -11 10 -2 0
-4 -4 -4 -10z"/>
<path d="M3013 367 c-3 -6 -1 -7 5 -3 7 4 12 2 12 -5 0 -7 3 -9 7 -6 3 4 13 1
21 -6 13 -10 14 -9 2 9 -13 22 -37 27 -47 11z"/>
<path d="M3155 369 c-4 -6 -5 -12 -2 -15 2 -3 7 2 10 11 7 17 1 20 -8 4z"/>
<path d="M2033 355 c0 -8 4 -12 9 -9 5 3 6 10 3 15 -9 13 -12 11 -12 -6z"/>
<path d="M2885 350 c-3 -5 -13 -7 -23 -4 -16 5 -16 5 0 -9 10 -8 16 -17 13
-20 -3 -4 -2 -4 3 -1 4 3 8 10 8 15 3 22 5 23 14 9 9 -13 10 -13 10 0 0 13 1
13 11 0 8 -12 10 -12 7 -1 -5 16 -35 24 -43 11z"/>
<path d="M2993 345 c0 -7 6 -11 14 -8 7 3 13 6 13 8 0 2 -6 5 -13 8 -8 3 -14
-1 -14 -8z"/>
<path d="M2153 325 c0 -8 4 -12 9 -9 5 3 6 10 3 15 -9 13 -12 11 -12 -6z"/>
<path d="M2505 329 c-10 -15 3 -25 16 -12 7 7 7 13 1 17 -6 3 -14 1 -17 -5z"/>
<path d="M2685 331 c-3 -5 -2 -12 3 -15 5 -3 9 1 9 9 0 17 -3 19 -12 6z"/>
<path d="M2721 331 c-15 -10 -7 -31 12 -30 8 0 8 2 -1 6 -10 4 -10 8 -1 19 13
16 10 18 -10 5z"/>
<path d="M2440 318 c0 -4 4 -8 9 -8 6 0 12 4 15 8 3 5 -1 9 -9 9 -8 0 -15 -4
-15 -9z"/>
<path d="M2535 309 c-4 -6 -4 -13 -1 -16 3 -4 6 -1 6 6 0 7 5 9 12 5 7 -4 8
-3 4 4 -9 15 -13 15 -21 1z"/>
<path d="M2415 300 c3 -5 8 -10 11 -10 2 0 4 5 4 10 0 6 -5 10 -11 10 -5 0 -7
-4 -4 -10z"/>
<path d="M2475 300 c3 -5 8 -10 11 -10 2 0 4 5 4 10 0 6 -5 10 -11 10 -5 0 -7
-4 -4 -10z"/>
<path d="M2799 293 c-13 -16 -12 -17 4 -4 16 13 21 21 13 21 -2 0 -10 -8 -17
-17z"/>
<path d="M3495 270 c-3 -5 -5 -10 -3 -11 27 -6 39 -5 45 4 3 7 3 9 -2 5 -4 -4
-14 -3 -21 3 -8 7 -14 7 -19 -1z"/>
<path d="M3413 202 c2 -12 6 -24 10 -28 3 -4 4 4 2 16 -6 30 -16 40 -12 12z"/>
<path d="M3381 196 c-9 -11 -9 -16 1 -22 7 -4 10 -4 6 1 -4 4 -3 14 3 22 6 7
9 13 6 13 -2 0 -10 -6 -16 -14z"/>
<path d="M3476 198 c3 -5 10 -6 15 -3 13 9 11 12 -6 12 -8 0 -12 -4 -9 -9z"/>
</g>
</svg>
